<!DOCTYPE svg PUBLIC "-//W3C//DTD SVG 1.1//EN" "http://www.w3.org/Graphics/SVG/1.1/DTD/svg11.dtd">
<!-- Uploaded to: SVG Repo, www.svgrepo.com, Transformed by: SVG Repo Mixer Tools -->
<svg height="800px" width="800px" version="1.1" id="Layer_1" xmlns="http://www.w3.org/2000/svg" xmlns:xlink="http://www.w3.org/1999/xlink" viewBox="0 0 512 512" xml:space="preserve" fill="#000000">
<g id="SVGRepo_bgCarrier" stroke-width="0"/>
<g id="SVGRepo_tracerCarrier" stroke-linecap="round" stroke-linejoin="round"/>
<g id="SVGRepo_iconCarrier"> <g> <path style="fill:#2563EB;" d="M448.414,437.237H63.586C28.524,437.237,0,408.713,0,373.651V148.655 c0-35.062,28.524-63.586,63.586-63.586h384.828c35.062,0,63.586,28.524,63.586,63.586v184.234c0,7.717-6.258,13.975-13.975,13.975 s-13.975-6.258-13.975-13.975V148.655c0-19.65-15.986-35.636-35.636-35.636H63.586c-19.65,0-35.636,15.986-35.636,35.636v224.996 c0,19.65,15.986,35.636,35.636,35.636h384.828c7.717,0,13.975,6.258,13.975,13.975 C462.389,430.979,456.133,437.237,448.414,437.237z"/> <path style="fill:#2563EB;" d="M74.421,286.283v-40.674c0-26.401,16.423-36.224,37.605-36.224s37.759,9.823,37.759,36.224v40.674 c0,26.401-16.577,36.224-37.759,36.224S74.421,312.684,74.421,286.283z M125.84,245.609c0-10.59-5.218-15.349-13.814-15.349 c-8.595,0-13.66,4.758-13.66,15.349v40.674c0,10.592,5.066,15.349,13.66,15.349c8.596,0,13.814-4.757,13.814-15.349V245.609z"/> <path style="fill:#2563EB;" d="M232.977,235.938c0,3.991-2.455,9.978-4.912,14.583l-35.917,68.764 c-1.227,2.302-3.53,3.224-6.754,3.224c-7.521,0-15.196-5.218-15.196-12.126c0-1.381,0.307-2.609,1.075-3.99l37.759-65.387v-10.744 h-27.475v10.283c0,4.145-5.833,7.368-12.126,7.368c-6.447,0-11.819-3.224-11.819-7.368v-23.789c0-3.684,5.218-7.368,10.438-7.368 h54.49c4.605,0,10.438,3.685,10.438,7.368L232.977,235.938L232.977,235.938z"/> <path style="fill:#2563EB;" d="M263.37,268.631c0,6.294-5.373,11.819-11.666,11.819c-6.754,0-11.819-5.524-11.819-11.819 c0-6.445,5.066-11.819,11.819-11.819C257.996,256.813,263.37,262.186,263.37,268.631z M263.37,310.689 c0,6.293-5.373,11.819-11.666,11.819c-6.754,0-11.819-5.526-11.819-11.819c0-6.447,5.066-11.819,11.819-11.819 C257.996,298.87,263.37,304.242,263.37,310.689z"/> <path style="fill:#2563EB;" d="M274.879,286.283v-40.674c0-26.401,16.423-36.224,37.605-36.224s37.759,9.823,37.759,36.224v40.674 c0,26.401-16.576,36.224-37.759,36.224C291.301,322.507,274.879,312.684,274.879,286.283z M326.299,245.609 c0-10.59-5.218-15.349-13.814-15.349c-8.596,0-13.66,4.758-13.66,15.349v40.674c0,10.592,5.066,15.349,13.66,15.349 c8.595,0,13.814-4.757,13.814-15.349V245.609z"/> <path style="fill:#2563EB;" d="M362.216,286.283v-40.674c0-26.401,16.423-36.224,37.605-36.224 c21.182,0,37.759,9.823,37.759,36.224v40.674c0,26.401-16.576,36.224-37.759,36.224 C378.637,322.507,362.216,312.684,362.216,286.283z M413.635,245.609c0-10.59-5.218-15.349-13.814-15.349 c-8.596,0-13.66,4.758-13.66,15.349v40.674c0,10.592,5.066,15.349,13.66,15.349c8.595,0,13.814-4.757,13.814-15.349V245.609z"/> </g> <path style="fill:#2563EB;" d="M153.14,474.445H65.867c-9.278,0-16.801-7.521-16.801-16.801v-34.382h120.873v34.382 C169.94,466.924,162.419,474.445,153.14,474.445z"/> <path style="fill:#2563EB;" d="M153.141,488.42H65.868c-16.97,0-30.776-13.806-30.776-30.774v-34.384 c0-7.717,6.257-13.975,13.975-13.975H169.94c7.718,0,13.975,6.258,13.975,13.975v34.384 C183.915,474.614,170.11,488.42,153.141,488.42z M63.042,437.237v20.409c0,1.557,1.268,2.824,2.826,2.824h87.273 c1.558,0,2.824-1.268,2.824-2.824v-20.409H63.042z"/> <path style="fill:#2563EB;" d="M446.132,474.445h-87.273c-9.279,0-16.801-7.521-16.801-16.801v-34.382h120.873v34.382 C462.933,466.924,455.411,474.445,446.132,474.445z"/> <path style="fill:#2563EB;" d="M446.132,488.42H358.86c-16.971,0-30.776-13.806-30.776-30.774v-34.384 c0-7.717,6.258-13.975,13.975-13.975h120.875c7.717,0,13.975,6.258,13.975,13.975v34.384 C476.909,474.614,463.103,488.42,446.132,488.42z M356.034,437.237v20.409c0,1.557,1.268,2.824,2.826,2.824h87.272 c1.558,0,2.826-1.268,2.826-2.824v-20.409H356.034z"/> <path style="fill:#2563EB;" d="M409.732,99.044H102.27V58.284c0-11.448,9.281-20.729,20.729-20.729h266.003 c11.448,0,20.729,9.281,20.729,20.729v40.761H409.732z"/> <path style="fill:#2563EB;" d="M409.73,113.019H102.27c-7.718,0-13.975-6.258-13.975-13.975V58.284 c0-19.136,15.568-34.704,34.704-34.704h266.004c19.136,0,34.704,15.568,34.704,34.704v40.761 C423.705,106.763,417.449,113.019,409.73,113.019z M116.245,85.069h279.512V58.284c0-3.724-3.03-6.754-6.754-6.754H122.999 c-3.724,0-6.754,3.03-6.754,6.754V85.069z"/> </g>
</svg>